<?xml version="1.0" encoding="iso-8859-1"?>
<!-- Uploaded to: SVG Repo, www.svgrepo.com, Generator: SVG Repo Mixer Tools -->
<!DOCTYPE svg PUBLIC "-//W3C//DTD SVG 1.1//EN" "http://www.w3.org/Graphics/SVG/1.1/DTD/svg11.dtd">
<svg fill="#000000" version="1.1" id="Capa_1" xmlns="http://www.w3.org/2000/svg" xmlns:xlink="http://www.w3.org/1999/xlink" 
	 width="800px" height="800px" viewBox="0 0 540.626 540.625"
	 xml:space="preserve">
<g>
	<path d="M444.777,327.534c15.463-9.084,20.636-28.982,11.562-44.455C417.772,217.413,346.561,176.61,270.501,176.61
		c-76.299,0-147.626,40.975-186.134,106.947c-9.046,15.48-3.815,35.371,11.676,44.428c5.145,3.002,10.777,4.436,16.342,4.436
		c11.169,0,22.042-5.775,28.076-16.111c26.918-46.102,76.739-74.732,130.041-74.732c53.129,0,102.873,28.516,129.82,74.406
		C409.406,331.456,429.334,336.61,444.777,327.534z"/>
	<path d="M2.808,260.568c-7.287,16.391,0.096,35.592,16.486,42.87c4.284,1.902,8.769,2.811,13.177,2.811
		c12.441,0,24.317-7.201,29.691-19.297c36.539-82.209,118.259-135.319,208.214-135.319c89.839,0,171.513,53.043,208.099,135.118
		c7.306,16.391,26.507,23.734,42.888,16.457c16.391-7.305,23.734-26.508,16.447-42.888
		C490.802,154.845,385.815,86.684,270.377,86.684C154.794,86.684,49.76,154.932,2.808,260.568z"/>
	<path d="M270.386,268.591c-56.256,0-107.042,35.478-126.416,88.272c-6.177,16.838,2.477,35.494,19.316,41.672
		c12.01,4.381,24.872,1.158,33.555-7.104c5.776,35.438,36.452,62.51,73.545,62.51c37.017,0,67.655-26.996,73.507-62.367
		c5.996,5.719,14.028,8.969,22.387,8.969c3.72,0,7.487-0.641,11.178-1.988c16.84-6.178,25.484-24.824,19.316-41.664
		C377.419,304.079,326.623,268.591,270.386,268.591z M297.524,406.846c-7.697,6.818-16.763,10.26-26.957,10.26
		c-10.327,0-19.469-3.395-27.176-10.098c-8.099-7.02-12.211-16.754-12.211-28.889c0-10.719,3.815-19.967,11.351-27.463
		c7.506-7.516,16.811-11.342,27.655-11.342c10.776,0,20.119,3.787,27.77,11.275c7.697,7.506,11.599,16.771,11.599,27.529
		C309.545,390.083,305.5,399.741,297.524,406.846z"/>
</g>
</svg>